<?xml version="1.0" standalone="no"?>
<!DOCTYPE svg PUBLIC "-//W3C//DTD SVG 20010904//EN"
 "http://www.w3.org/TR/2001/REC-SVG-20010904/DTD/svg10.dtd">
<svg version="1.0" xmlns="http://www.w3.org/2000/svg"
 width="1280.000000pt" height="1023.000000pt" viewBox="0 0 1280.000000 1023.000000"
 preserveAspectRatio="xMidYMid meet">
<g transform="translate(0.000000,1023.000000) scale(0.100000,-0.100000)"
fill="#000000" stroke="none">
<path d="M5840 10218 c-102 -4 -347 -15 -545 -23 -513 -22 -1015 -58 -1469
-105 -164 -17 -198 -24 -251 -49 -119 -55 -186 -155 -187 -276 0 -91 26 -157
90 -226 38 -42 52 -64 51 -85 0 -16 -15 -114 -32 -218 l-32 -190 -57 -29
c-131 -66 -196 -172 -207 -335 l-6 -97 -1599 -3 c-1516 -2 -1598 -3 -1591 -20
38 -94 167 -1909 270 -3787 50 -922 42 -830 83 -910 49 -96 172 -218 269 -268
40 -21 107 -46 149 -57 76 -20 121 -20 2406 -20 l2328 0 0 519 c0 286 3 526 6
535 6 14 97 16 930 16 l924 0 2 -532 3 -533 2360 0 2360 0 70 23 c182 60 339
204 404 371 23 56 28 161 56 1106 36 1213 50 1655 70 2130 30 690 78 1380 100
1416 4 5 -627 9 -1662 9 -917 0 -1673 4 -1679 8 -6 4 -13 50 -16 104 -4 84
-10 107 -37 162 -36 74 -98 134 -172 167 -26 12 -50 28 -53 35 -3 7 -19 104
-37 216 l-32 204 46 43 c126 116 142 314 36 435 -86 98 -142 115 -499 150
-493 50 -895 78 -1360 96 -151 6 -367 15 -480 20 -236 12 -741 11 -1010 -2z
m-2037 -282 c39 -16 82 -61 96 -99 16 -42 13 -108 -7 -146 -27 -54 -42 -51
-42 9 0 28 -7 64 -15 81 -32 61 -121 87 -185 54 -33 -17 -70 -61 -70 -84 0 -9
-5 -23 -10 -31 -9 -13 -11 -13 -20 0 -24 37 2 143 46 182 54 48 141 62 207 34z
m5195 -10 c64 -34 104 -98 104 -167 0 -82 -22 -90 -41 -15 -16 66 -67 106
-132 106 -90 0 -143 -59 -138 -153 4 -61 -13 -72 -37 -25 -42 80 -8 196 71
244 47 28 129 33 173 10z m-1890 -346 c682 -24 1684 -98 1713 -127 5 -5 25
-108 45 -228 l35 -218 -52 -51 c-76 -74 -103 -138 -107 -256 -2 -52 -9 -101
-14 -107 -8 -10 -502 -13 -2409 -13 -2361 0 -2398 0 -2409 19 -5 11 -10 54
-10 95 0 105 -26 171 -100 250 l-59 62 35 220 c19 120 38 222 43 226 17 18
789 81 1341 108 588 30 1418 38 1948 20z m-3682 -794 c-8 -64 8 -112 49 -144
81 -64 203 -16 220 86 11 60 16 73 28 69 30 -10 50 -180 25 -205 -8 -8 -66
-12 -193 -12 -127 0 -185 4 -193 12 -16 16 -15 123 2 171 15 40 43 77 59 77 5
0 7 -21 3 -54z m5835 18 c27 -45 40 -184 19 -209 -10 -12 -45 -15 -196 -15
-173 0 -184 1 -194 20 -11 21 -4 137 11 178 12 30 27 28 35 -5 23 -109 64
-153 145 -153 92 0 147 68 134 166 -8 66 11 74 46 18z"/>
<path d="M6375 4213 c-46 -24 -66 -45 -86 -88 -31 -68 -18 -148 33 -202 l20
-22 -19 -178 c-11 -98 -18 -181 -16 -185 2 -5 69 -8 148 -8 79 0 146 3 148 8
3 4 -4 87 -15 185 l-19 177 25 31 c100 119 14 300 -141 299 -26 -1 -61 -8 -78
-17z"/>
<path d="M320 3237 c0 -12 -11 -240 -25 -507 -67 -1364 -129 -2720 -124 -2725
3 -3 19 -1 35 4 65 21 659 63 1164 82 354 13 1658 7 2200 -11 2092 -67 2775
-72 4300 -30 1553 43 2220 54 2905 47 731 -8 1128 -23 1690 -63 121 -8 237
-19 258 -24 20 -4 39 -5 41 -1 1 3 -1 74 -5 156 -5 83 -18 317 -29 520 -11
204 -34 618 -50 920 -88 1622 -90 1648 -94 1653 -2 2 -35 -14 -73 -35 -90 -52
-202 -97 -288 -117 -38 -9 -79 -20 -90 -24 -11 -3 -1086 -9 -2390 -12 l-2370
-5 -5 -570 -5 -570 -915 -3 c-851 -2 -916 -1 -927 15 -10 13 -13 144 -13 575
l0 558 -2295 0 c-1563 0 -2326 3 -2392 11 -136 15 -251 50 -385 118 -109 55
-118 58 -118 38z"/>
<path d="M5957 3153 c-4 -3 -7 -208 -7 -455 l0 -448 500 0 500 0 -2 453 -3
452 -491 3 c-270 1 -494 -1 -497 -5z"/>
</g>
</svg>
